<svg xmlns="http://www.w3.org/2000/svg" xmlns:xlink="http://www.w3.org/1999/xlink" viewBox="0,0,256,256" width="64px" height="64px" fill-rule="nonzero"><g fill="#ffffff" fill-rule="nonzero" stroke="none" stroke-width="1" stroke-linecap="butt" stroke-linejoin="miter" stroke-miterlimit="10" stroke-dasharray="" stroke-dashoffset="0" font-family="none" font-weight="none" font-size="none" text-anchor="none" style="mix-blend-mode: normal"><g transform="scale(3.55556,3.55556)"><path d="M25,11c-4.971,0 -9,4.029 -9,9v32c0,4.971 4.029,9 9,9h22c4.971,0 9,-4.029 9,-9v-20.92969c0,-2.387 -0.94872,-4.67528 -2.63672,-6.36328l-11.07031,-11.07031c-1.688,-1.688 -3.97628,-2.63672 -6.36328,-2.63672zM26,19h5v8c0,4.971 4.029,9 9,9h8v15c0,1.105 -0.895,2 -2,2h-20c-1.105,0 -2,-0.895 -2,-2v-30c0,-1.105 0.895,-2 2,-2zM39,21.65625l6.34375,6.34375h-4.34375c-1.105,0 -2,-0.895 -2,-2zM30,39c-1.104,0 -2,0.895 -2,2c0,1.105 0.896,2 2,2h12c1.104,0 2,-0.895 2,-2c0,-1.105 -0.896,-2 -2,-2zM30,46c-1.104,0 -2,0.895 -2,2c0,1.105 0.896,2 2,2h12c1.104,0 2,-0.895 2,-2c0,-1.105 -0.896,-2 -2,-2z"></path></g></g></svg>